<svg xmlns="http://www.w3.org/2000/svg" viewBox="0 0 5.994 4.891"><defs><style>.a{fill:#fff;}.b{fill:#c10033;}</style></defs><title>Untitled-7</title><rect class="a" width="5.994" height="4.891"/><path class="b" d="M1.772,3.782a.255.255,0,0,1,.265-.261.233.233,0,0,1,.215.123l-.092.045a.138.138,0,0,0-.123-.073.166.166,0,0,0,0,.331.137.137,0,0,0,.123-.073l.092.045a.234.234,0,0,1-.215.124A.255.255,0,0,1,1.772,3.782Z"/><path class="b" d="M2.677,3.822H2.439v.212H2.331v-.5h.107v.2h.238v-.2h.108v.5H2.677Z"/><path class="b" d="M2.885,3.529h.357v.092h-.25v.11h.244v.092H2.992V3.94h.25v.093H2.885Z"/><path class="b" d="M3.38,3.881a.221.221,0,0,0,.16.068c.059,0,.088-.028.088-.057s-.044-.051-.1-.064c-.082-.019-.188-.042-.188-.154,0-.084.073-.152.191-.152a.281.281,0,0,1,.2.07l-.06.079a.215.215,0,0,0-.145-.055c-.048,0-.074.021-.074.051s.042.045.1.058c.083.019.189.044.189.156,0,.092-.066.162-.2.162a.288.288,0,0,1-.213-.08Z"/><path class="b" d="M3.865,3.881a.221.221,0,0,0,.16.068c.059,0,.088-.028.088-.057s-.044-.051-.1-.064c-.082-.019-.188-.042-.188-.154,0-.084.073-.152.191-.152a.281.281,0,0,1,.2.07l-.06.079a.215.215,0,0,0-.145-.055c-.048,0-.074.021-.074.051s.042.045.1.058c.083.019.189.044.189.156,0,.092-.066.162-.2.162a.288.288,0,0,1-.213-.08Z"/><path class="b" d="M1.44,4.279h.309v.08H1.532v.095h.211v.08H1.532v.182H1.44Z"/><path class="b" d="M2.046,4.272a.226.226,0,1,1-.228.226A.219.219,0,0,1,2.046,4.272Zm0,.082a.144.144,0,1,0,.133.143A.132.132,0,0,0,2.046,4.354Z"/><path class="b" d="M2.34,4.279h.094v.259a.1.1,0,1,0,.2,0V4.279H2.73v.262a.171.171,0,0,1-.194.183.172.172,0,0,1-.2-.182Z"/><path class="b" d="M2.91,4.422v.293H2.817V4.279h.1l.2.283V4.279h.093v.437h-.09Z"/><path class="b" d="M3.294,4.279h.172a.219.219,0,1,1,0,.437H3.294Zm.172.355A.131.131,0,0,0,3.6,4.5a.128.128,0,0,0-.137-.137H3.387v.273Z"/><path class="b" d="M3.925,4.559H3.857v.156H3.764V4.279h.2a.136.136,0,0,1,.147.141.125.125,0,0,1-.1.13l.1.166H4.011Zm.029-.2h-.1v.12h.1a.06.06,0,1,0,0-.12Z"/><path class="b" d="M4.295,4.537l-.168-.258h.106l.109.175.107-.175h.106l-.167.258v.179H4.295Z"/><path class="a" d="M2.373,2.933c.238.014.473.02.7.02.191,0,.387,0,.586-.014a4.161,4.161,0,0,0-.23-1.431l-.045-.1A1.976,1.976,0,0,0,3.157.969L3.135.951,3.126.925A2.539,2.539,0,0,0,2.934.5c-.019.047-.043.109-.065.173L2.846.732H2.774a.823.823,0,0,0-.488.225l-.01.01a1.636,1.636,0,0,1-.593.389c-.084.034-.176.068-.274.1l.173.3a.088.088,0,0,0,.054.048A.073.073,0,0,0,1.694,1.8l.014-.009a.81.81,0,0,1,.207-.1,1.214,1.214,0,0,1,.518-.047.5.5,0,0,0,.421-.147s.009.242-.153.309a1.158,1.158,0,0,1-.149.506A1.5,1.5,0,0,0,2.373,2.933Z"/><path class="b" d="M3.6,1.429l-.044-.1A1.881,1.881,0,0,0,3.3.839c-.071-.2-.2-.515-.327-.571a.131.131,0,0,0-.1,0C2.832.28,2.8.292,2.711.545a1.068,1.068,0,0,0-.557.276l-.01.01a1.449,1.449,0,0,1-.532.349c-.11.045-.236.089-.372.131l-.113.035.286.5a.275.275,0,0,0,.176.146A.262.262,0,0,0,1.8,1.957l.015-.009a.65.65,0,0,1,.157-.081,1.039,1.039,0,0,1,.449-.041.808.808,0,0,0,.093,0,1,1,0,0,1-.127.391,1.724,1.724,0,0,0-.2.8l0,.093.093.006c.274.018.546.027.806.027.223,0,.454-.007.687-.019l.089,0V3.012A4.522,4.522,0,0,0,3.6,1.429Zm-.53,1.524c-.226,0-.461-.007-.7-.02A1.5,1.5,0,0,1,2.553,2.3,1.158,1.158,0,0,0,2.7,1.8c.161-.067.153-.309.153-.309a.5.5,0,0,1-.421.147,1.214,1.214,0,0,0-.518.047.81.81,0,0,0-.207.1L1.694,1.8a.073.073,0,0,1-.059.008.088.088,0,0,1-.054-.048l-.173-.3c.1-.033.19-.066.274-.1A1.636,1.636,0,0,0,2.276.967l.01-.01A.823.823,0,0,1,2.774.732h.072L2.869.669C2.891.605,2.914.543,2.934.5a2.508,2.508,0,0,1,.187.416,2.945,2.945,0,0,1,.111,1.024L3.213,2.1l.256-.112a3.2,3.2,0,0,1-.108.665l-.049.191.339-.152c0,.1.007.18.008.246C3.46,2.948,3.263,2.953,3.073,2.953Z"/></svg>